<svg xmlns="http://www.w3.org/2000/svg" width="149" height="149" viewBox="0 0 149 149"><g transform="translate(-86 -4294)"><circle cx="74.5" cy="74.5" r="74.5" transform="translate(86 4294)" fill="#0e1428"/><g transform="translate(102.155 4328.87)"><path d="M119.562,49.637c-.965-4.378-3.317-9.6-7.1-10.927-2.84-.983-5.441-3.923-8.717-2.765-2.01.711-3.674-1.056-3.947-2.889-1.556-10.149-9.643-4.422-13.38-9.387-.841-1.107-1.42,1.481-1.159,2.787,1.011,5.045-3.356,6.321-4.117,5.588-2.419-2.339-5.548-4.811-5.867-8.455,1.113-2.6,2-4.6.943-5.177C68.165,14.041,60.186,8.482,51.781,6.928c-2.2-.4-5.764,4.525-9.07-.792-.528-.843-3.072-.88-3.788-.029C30.513,15.991,19.876,19.739,9.432,23.633c-3.055,1.122-4.89,7.788-9.109,3.63-1.363,5.654,1.863,7.927,4.646,10.56a3.862,3.862,0,0,1,.909,3.769C4.588,48.647,8.285,52.8,11.789,56.376c6.457,6.563,13.369,12.313,19.956,18.6,6.531,6.263,13.437,6.541,17.787-1.635,3.334-6.226,6.7-6.754,10.671-3.659,7.786,6.043,17.4,1.6,25.068,7.788.363.293,2.027-.975,2.391-1.943,1.363-3.813,3.669-3.645,6.315-3.329,5.9.726,10.058-3.769,12.886-9.387,1.971-3.909,5-5.581,7.184-8.712C115.649,51.778,120.538,54.081,119.562,49.637Z" transform="translate(0 0)" fill="#f7d6d2"/></g></g></svg>