<svg xmlns="http://www.w3.org/2000/svg" width="149" height="149" viewBox="0 0 149 149"><g transform="translate(-86 -3920)"><circle cx="74.5" cy="74.5" r="74.5" transform="translate(86 3920)" fill="#0e1428"/><g transform="translate(115.016 3945.031)"><g transform="translate(0.085)"><path d="M17.239,60.24C11.5,58.6,8.489,52.587,10.13,46.572s7.655-9.842,13.123-8.2l17.5,4.649c5.742,1.642,8.747,7.654,7.382,13.671a10.95,10.95,0,0,1-2.734,4.92c0,.82,1.913,3.554,4.374,4.374a14.358,14.358,0,0,0,4.1.82A22.38,22.38,0,0,0,57.7,59.149c3.006-11.21-3.281-22.969-14.215-25.7L25.988,28.8C15.052,25.792,3.843,32.626.836,44.111s3.281,22.963,14.216,25.7l17.5,4.648c.82.276,1.64.276,2.461.547A23.363,23.363,0,0,1,29,63.525Z" transform="translate(-0.085 6.194)" fill="#f7d6d2"/><path d="M69.069,40.362l-17.5-4.649c-.821-.275-1.642-.275-2.462-.546A23.367,23.367,0,0,1,55.125,46.65l11.482,3.01c5.741,1.64,8.749,7.654,7.382,13.667-1.64,6.016-7.654,9.84-13.123,8.2L43.094,67.157c-5.741-1.643-8.747-7.655-7.379-13.671a10.927,10.927,0,0,1,2.734-4.919c0-.547-.82-3.281-4.921-4.65a13.034,13.034,0,0,0-3.554-.82,25.136,25.136,0,0,0-3.827,7.654c-3.007,11.21,3.281,22.963,14.216,25.7l17.5,4.65C68.795,84.109,80,77.273,83.01,65.79A20.482,20.482,0,0,0,69.069,40.362Z" transform="translate(5.496 7.755)" fill="#f7d6d2"/><path d="M43.14,38.548c1.094.546-9.842-11.757-9.842-23.513,2.187,10.116,13.67,20.231,15.582,25.972C56.263,12.575,34.938,4.92,25.1,0,16.894,23.512,31.657,33.353,43.14,38.548Z" transform="translate(4.906)" fill="#f7d6d2"/><path d="M49.5,34.748c7.382.82,18.043,0,20.775-14.763-6.561-.275-19.959-2.734-24.333,14.214,2.734-2.461,11.482-4.1,15.857-8.749C58.249,31.469,48.955,34.475,49.5,34.748Z" transform="translate(10.027 4.345)" fill="#f7d6d2"/></g></g></g></svg>