<svg xmlns="http://www.w3.org/2000/svg" width="149" height="149" viewBox="0 0 149 149"><g transform="translate(-86 -4106)"><circle cx="74.5" cy="74.5" r="74.5" transform="translate(86 4106)" fill="#0e1428"/><g transform="translate(118.091 4137.17)"><g transform="translate(0 0.152)"><path d="M19.09.152C6.753.152.726,5.728.477,5.964L0,6.416,5.491,69.569v14.9h27.2v-14.9L38.181,6.414l-.476-.45C37.455,5.728,31.428.152,19.09.152ZM29.97,81.747H8.211v-2.72H29.97Zm-13.22-5.44a2.7,2.7,0,0,1,4.682,0Zm13.22,0H24.337a5.413,5.413,0,0,0-10.493,0H8.211v-5.44H29.97Zm1.176-20.4H28.61v2.72h2.3l-.828,9.519H8.1L7.27,58.628H25.89v-2.72H7.033L3.723,17.831H34.457Zm3.548-40.8H3.487L2.829,7.547C4.4,6.355,9.778,2.872,19.09,2.872s14.7,3.485,16.262,4.675Z" transform="translate(0 -0.152)" fill="#f7d6d2"/><path d="M47.1,144.311h4.08v12.239H53.9V144.311h4.08a6.807,6.807,0,0,0,6.8-6.8v-1.36h-6.8a6.775,6.775,0,0,0-5.44,2.762,6.775,6.775,0,0,0-5.44-2.762H40.3v1.36A6.807,6.807,0,0,0,47.1,144.311Zm10.879-5.44H61.83a4.088,4.088,0,0,1-3.847,2.72H54.136A4.088,4.088,0,0,1,57.983,138.872Zm-10.879,0a4.088,4.088,0,0,1,3.847,2.72H47.1a4.088,4.088,0,0,1-3.847-2.72Z" transform="translate(-33.453 -113.033)" fill="#f7d6d2"/><path d="M240.3.152V64.068a6.812,6.812,0,0,0,5.44,6.662V84.467h32.638V70.73a6.812,6.812,0,0,0,5.44-6.662V.152H240.3Zm35.358,81.595h-27.2v-2.72h27.2Zm-15.94-5.44a2.7,2.7,0,0,1,4.682,0Zm15.94,0h-8.353a5.413,5.413,0,0,0-10.493,0h-8.353v-5.44h27.2v5.44Zm5.44-23.119h-2.72v2.72h2.72v8.159a4.085,4.085,0,0,1-4.08,4.08H247.1a4.085,4.085,0,0,1-4.08-4.08V55.908h32.638v-2.72H243.024V15.111H281.1Zm0-40.8H243.024V2.872H281.1Z" transform="translate(-199.455 -0.152)" fill="#f7d6d2"/><path d="M288.623,136.79A16.319,16.319,0,1,0,272.3,120.471,16.337,16.337,0,0,0,288.623,136.79Zm0-29.918a13.6,13.6,0,1,1-13.6,13.6A13.615,13.615,0,0,1,288.623,106.872Z" transform="translate(-226.015 -86.473)" fill="#f7d6d2"/><path d="M311.1,176.311h2.72v6.8h2.72v-6.8h2.72a6.807,6.807,0,0,0,6.8-6.8v-1.36h-5.44a6.775,6.775,0,0,0-5.44,2.762,6.775,6.775,0,0,0-5.44-2.762H304.3v1.36A6.807,6.807,0,0,0,311.1,176.311Zm9.519-5.44h2.487a4.088,4.088,0,0,1-3.847,2.72h-2.487A4.088,4.088,0,0,1,320.623,170.872Zm-10.879,0a4.088,4.088,0,0,1,3.847,2.72H311.1a4.088,4.088,0,0,1-3.847-2.72Z" transform="translate(-252.576 -139.594)" fill="#f7d6d2"/></g></g></g></svg>