<svg xmlns="http://www.w3.org/2000/svg" width="15.811" height="31.299" viewBox="0 0 15.811 31.299"><path d="M77.208,16.67h3.431V30.794a.5.5,0,0,0,.5.5h5.817a.5.5,0,0,0,.5-.5V16.737H91.41a.5.5,0,0,0,.5-.447l.6-5.2a.5.5,0,0,0-.5-.563H87.466V7.267c0-.983.529-1.481,1.573-1.481h2.97a.5.5,0,0,0,.5-.5V.509a.5.5,0,0,0-.5-.5H87.915c-.029,0-.093,0-.187,0A7.844,7.844,0,0,0,82.6,1.934,5.379,5.379,0,0,0,80.81,6.715v3.812h-3.6a.5.5,0,0,0-.5.5v5.133A.5.5,0,0,0,77.208,16.67Z" transform="translate(-76.703)" fill="#0e1428"/></svg>