<svg xmlns="http://www.w3.org/2000/svg" width="32.56" height="32.558" viewBox="0 0 32.56 32.558"><path d="M4.181.012h24.2A4.191,4.191,0,0,1,32.56,4.191v24.2a4.189,4.189,0,0,1-4.179,4.177H4.181A4.191,4.191,0,0,1,0,28.392V4.191A4.192,4.192,0,0,1,4.181.012ZM23.72,3.628A1.471,1.471,0,0,0,22.254,5.1V8.6A1.47,1.47,0,0,0,23.72,10.07H27.4A1.47,1.47,0,0,0,28.865,8.6V5.1A1.472,1.472,0,0,0,27.4,3.628H23.72Zm5.16,10.152H26.014a9.52,9.52,0,0,1,.419,2.8,9.969,9.969,0,0,1-10.123,9.8,9.969,9.969,0,0,1-10.121-9.8,9.563,9.563,0,0,1,.419-2.8H3.62V27.535a1.3,1.3,0,0,0,1.293,1.292H27.587a1.294,1.294,0,0,0,1.293-1.292Zm-12.568-3.9a6.44,6.44,0,0,0-6.538,6.337,6.441,6.441,0,0,0,6.538,6.336,6.441,6.441,0,0,0,6.54-6.336A6.44,6.44,0,0,0,16.311,9.885Z" transform="translate(0 -0.012)" fill="#0e1428"/></svg>